<svg width="18" height="14" viewBox="0 0 18 14" fill="none" xmlns="http://www.w3.org/2000/svg">
<path d="M11.8001 2.8C11.8001 4.3464 10.5465 5.6 9.0001 5.6C7.4537 5.6 6.2001 4.3464 6.2001 2.8C6.2001 1.2536 7.4537 0 9.0001 0C10.5465 0 11.8001 1.2536 11.8001 2.8Z" fill="#14597A"/>
<path d="M16.4668 4.66667C16.4668 5.6976 15.631 6.53333 14.6001 6.53333C13.5692 6.53333 12.7334 5.6976 12.7334 4.66667C12.7334 3.63574 13.5692 2.8 14.6001 2.8C15.631 2.8 16.4668 3.63574 16.4668 4.66667Z" fill="#14597A"/>
<path d="M12.7334 11.2C12.7334 9.13814 11.062 7.46667 9.0001 7.46667C6.93823 7.46667 5.26676 9.13814 5.26676 11.2V14H12.7334V11.2Z" fill="#14597A"/>
<path d="M5.26676 4.66667C5.26676 5.6976 4.43103 6.53333 3.4001 6.53333C2.36917 6.53333 1.53343 5.6976 1.53343 4.66667C1.53343 3.63574 2.36917 2.8 3.4001 2.8C4.43103 2.8 5.26676 3.63574 5.26676 4.66667Z" fill="#14597A"/>
<path d="M14.6001 14V11.2C14.6001 10.2161 14.3464 9.29152 13.9008 8.48804C14.1243 8.43056 14.3586 8.4 14.6001 8.4C16.1465 8.4 17.4001 9.6536 17.4001 11.2V14H14.6001Z" fill="#14597A"/>
<path d="M4.09941 8.48804C3.65382 9.29152 3.4001 10.2161 3.4001 11.2V14H0.600098V11.2C0.600098 9.6536 1.8537 8.4 3.4001 8.4C3.64156 8.4 3.87588 8.43056 4.09941 8.48804Z" fill="#14597A"/>
</svg>
