<svg width="18" height="18" viewBox="0 0 18 18" fill="none" xmlns="http://www.w3.org/2000/svg">
<path d="M7.35502 6.28883C7.51756 6.18047 7.71834 6.08362 7.94998 6.00866L7.94998 7.79154C7.71834 7.71658 7.51756 7.61973 7.35502 7.51137C6.97271 7.25649 6.89998 7.01969 6.89998 6.9001C6.89998 6.7805 6.97271 6.5437 7.35502 6.28883Z" fill="#14597A"/>
<path d="M10.05 11.9915L10.05 10.2087C10.2816 10.2836 10.4824 10.3805 10.6449 10.4888C11.0273 10.7437 11.1 10.9805 11.1 11.1001C11.1 11.2197 11.0273 11.4565 10.6449 11.7114C10.4824 11.8197 10.2816 11.9166 10.05 11.9915Z" fill="#14597A"/>
<path fill-rule="evenodd" clip-rule="evenodd" d="M8.99998 17.4001C13.6392 17.4001 17.4 13.6393 17.4 9.0001C17.4 4.36091 13.6392 0.600098 8.99998 0.600098C4.36078 0.600098 0.599976 4.36091 0.599976 9.0001C0.599976 13.6393 4.36078 17.4001 8.99998 17.4001ZM10.05 3.7501C10.05 3.1702 9.57987 2.7001 8.99998 2.7001C8.42008 2.7001 7.94998 3.1702 7.94998 3.7501V3.84669C7.2973 3.96926 6.69363 4.20587 6.19015 4.54152C5.43239 5.04669 4.79998 5.8599 4.79998 6.9001C4.79998 7.9403 5.43239 8.7535 6.19015 9.25867C6.69363 9.59433 7.29731 9.83094 7.94999 9.95351L7.94999 11.9918C7.53944 11.8585 7.2351 11.6586 7.06448 11.462C6.68442 11.024 6.02126 10.977 5.58326 11.357C5.14527 11.7371 5.09829 12.4002 5.47834 12.8382C6.06896 13.5189 6.96251 13.9675 7.94998 14.1531L7.94998 14.2501C7.94996 14.83 8.42005 15.3001 8.99995 15.3001C9.57985 15.3001 10.05 14.83 10.05 14.2501L10.05 14.1535C10.7027 14.0309 11.3063 13.7943 11.8098 13.4587C12.5676 12.9535 13.2 12.1403 13.2 11.1001C13.2 10.0599 12.5676 9.24669 11.8098 8.74152C11.3063 8.40587 10.7027 8.16926 10.05 8.04669L10.05 6.00839C10.4605 6.14169 10.7649 6.3416 10.9355 6.53824C11.3155 6.97624 11.9787 7.02322 12.4167 6.64316C12.8547 6.26311 12.9017 5.59995 12.5216 5.16195C11.931 4.48128 11.0375 4.03271 10.05 3.84707V3.7501Z" fill="#14597A"/>
</svg>
